# xmcd
#
# Track frame offsets:
#	150
#	12938
#	26959
#	38917
#	52630
#	66071
#	79706
#	94237
#	107748
#	120935
#	133015
#	144408
#	159077
#	170281
#	183389
#	195449
#	207003
#	221217
#	232550
#	246349
#	258226
#	271943
#	286036
#	299194
#
# Disc length: 4157 seconds
#
# Revision: 1
# Processed by: cddbd v1.5.1PL0 Copyright (c) Steve Scherf et al.
# Submitted via: EasyCDDAExtractor 7.0.6.1
#
DISCID=49103b18
DTITLE=Hank Snow - The Hank Snow Memorial Album
DYEAR=1900
DGENRE=Country
TTITLE0=Blue Ranger
TTITLE1=The Blue Velvet Band
TTITLE2=Brand On My Heart
TTITLE3=A Solder's Last Letter
TTITLE4=My San Antonio Mama
TTITLE5=When My Blue Moon Turns To Gold
TTITLE6=Mother Is Praying For You
TTITLE7=The Hobo's Last Ride
TTITLE8=Sunnyside Of The Mountain
TTITLE9=Wanderin' On
TTITLE10=I'm Sending You red Roses
TTITLE11=I'll Not Forget My Mothers Prayer
TTITLE12=My Filipino Rose
TTITLE13=You're Little Band Of Gold
TTITLE14=Headin' Home
TTITLE15=Your Sad Kiss Goodbye
TTITLE16=My Blue River Rose
TTITLE17=How She Could Yodel
TTITLE18=Little Buddy
TTITLE19=The Rainbows End
TTITLE20=Too Mnay Tears
TTITLE21=Somewhere Along Lif'e Highway
TTITLE22=The Texas Cowboy
TTITLE23=Just Waiting For You
EXTD=
EXTT0=
EXTT1=
EXTT2=
EXTT3=
EXTT4=
EXTT5=
EXTT6=
EXTT7=
EXTT8=
EXTT9=
EXTT10=
EXTT11=
EXTT12=
EXTT13=
EXTT14=
EXTT15=
EXTT16=
EXTT17=
EXTT18=
EXTT19=
EXTT20=
EXTT21=
EXTT22=
EXTT23=
PLAYORDER=
